<svg class="k8s-logo" viewBox="0 0 64 64" xmlns="http://www.w3.org/2000/svg">
	<circle cx="32" cy="32" r="32" fill="#326CE5"/>
	<circle cx="32" cy="32" r="28" fill="none" stroke="white" stroke-width="2.5"/>
	<circle cx="32" cy="32" r="6" fill="white"/>
	<g fill="white">
		<rect x="30.5" y="10" width="3" height="16" rx="1.5" transform="rotate(0 32 32)"/>
		<rect x="30.5" y="10" width="3" height="16" rx="1.5" transform="rotate(51.4 32 32)"/>
		<rect x="30.5" y="10" width="3" height="16" rx="1.5" transform="rotate(102.8 32 32)"/>
		<rect x="30.5" y="10" width="3" height="16" rx="1.5" transform="rotate(154.3 32 32)"/>
		<rect x="30.5" y="10" width="3" height="16" rx="1.5" transform="rotate(205.7 32 32)"/>
		<rect x="30.5" y="10" width="3" height="16" rx="1.5" transform="rotate(257.1 32 32)"/>
		<rect x="30.5" y="10" width="3" height="16" rx="1.5" transform="rotate(308.6 32 32)"/>
	</g>
	<g fill="white">
		<ellipse cx="32" cy="6.5" rx="4.5" ry="3" transform="rotate(0 32 32)"/>
		<ellipse cx="32" cy="6.5" rx="4.5" ry="3" transform="rotate(51.4 32 32)"/>
		<ellipse cx="32" cy="6.5" rx="4.5" ry="3" transform="rotate(102.8 32 32)"/>
		<ellipse cx="32" cy="6.5" rx="4.5" ry="3" transform="rotate(154.3 32 32)"/>
		<ellipse cx="32" cy="6.5" rx="4.5" ry="3" transform="rotate(205.7 32 32)"/>
		<ellipse cx="32" cy="6.5" rx="4.5" ry="3" transform="rotate(257.1 32 32)"/>
		<ellipse cx="32" cy="6.5" rx="4.5" ry="3" transform="rotate(308.6 32 32)"/>
	</g>
</svg>
